<svg width="159" height="50" viewBox="0 0 159 50" fill="none" xmlns="http://www.w3.org/2000/svg">
<path d="M34.3158 18.0208L27.4993 10.4776L18.5241 18.5881L30.1294 31.4306L20.9428 39.7322L14.5525 32.6606" stroke="white" stroke-width="1.74534"/>
<path d="M27.4053 12.6396L20.6971 18.7016L26.759 25.4098L33.4673 19.3478L27.4053 12.6396Z" fill="#A594FD"/>
<path d="M21.9415 24.8499L15.2332 30.9118L21.2952 37.6201L28.0034 31.5581L21.9415 24.8499Z" fill="#A594FD"/>
<path d="M42.7467 33.8932C42.2586 33.8932 41.7889 33.8322 41.3374 33.7102C40.886 33.5759 40.4711 33.3929 40.0929 33.1611C39.7147 32.9171 39.3852 32.6242 39.1046 32.2826L40.3857 31.0015C40.6908 31.3553 41.0385 31.6237 41.4289 31.8068C41.8316 31.9776 42.283 32.063 42.7833 32.063C43.2347 32.063 43.5763 31.9959 43.8082 31.8617C44.04 31.7275 44.1559 31.5322 44.1559 31.276C44.1559 31.0076 44.0461 30.8002 43.8265 30.6537C43.6069 30.5073 43.3201 30.3853 42.9663 30.2877C42.6247 30.1779 42.2586 30.0681 41.8682 29.9583C41.4899 29.8485 41.1239 29.7021 40.7701 29.519C40.4284 29.3238 40.1478 29.0615 39.9282 28.7321C39.7086 28.4026 39.5987 27.9756 39.5987 27.4509C39.5987 26.8897 39.7269 26.4077 39.9831 26.0051C40.2515 25.6024 40.6237 25.2913 41.0995 25.0717C41.5875 24.8521 42.1671 24.7423 42.8382 24.7423C43.5458 24.7423 44.1681 24.8704 44.705 25.1266C45.254 25.3706 45.7116 25.7428 46.0776 26.243L44.7965 27.5241C44.5402 27.2069 44.2474 26.969 43.918 26.8104C43.5886 26.6517 43.2103 26.5724 42.7833 26.5724C42.3806 26.5724 42.0695 26.6334 41.8499 26.7555C41.6303 26.8775 41.5204 27.0544 41.5204 27.2862C41.5204 27.5302 41.6303 27.7194 41.8499 27.8536C42.0695 27.9878 42.3501 28.1037 42.6918 28.2013C43.0456 28.2989 43.4116 28.4087 43.7899 28.5307C44.1803 28.6405 44.5463 28.7992 44.888 29.0066C45.2418 29.2018 45.5285 29.4702 45.7482 29.8119C45.9678 30.1413 46.0776 30.5744 46.0776 31.1113C46.0776 31.9654 45.7787 32.6425 45.1808 33.1428C44.583 33.6431 43.7716 33.8932 42.7467 33.8932Z" fill="white"/>
<path d="M53.7587 33.7102V28.6405C53.7587 28.0549 53.5695 27.5729 53.1913 27.1947C52.8253 26.8165 52.3494 26.6273 51.7638 26.6273C51.3733 26.6273 51.0256 26.7128 50.7205 26.8836C50.4155 27.0544 50.1776 27.2923 50.0068 27.5973C49.836 27.9024 49.7506 28.2501 49.7506 28.6405L48.9636 28.2013C48.9636 27.5302 49.11 26.9385 49.4028 26.426C49.6956 25.9014 50.0983 25.4926 50.6107 25.1998C51.1354 24.8948 51.7211 24.7423 52.3677 24.7423C53.0266 24.7423 53.6122 24.8887 54.1247 25.1815C54.6371 25.4743 55.0398 25.8831 55.3326 26.4077C55.6254 26.9202 55.7719 27.518 55.7719 28.2013V33.7102H53.7587ZM47.7373 33.7102V20.5328H49.7506V33.7102H47.7373Z" fill="white"/>
<path d="M61.4963 33.8932C60.7033 33.8932 59.9834 33.6919 59.3367 33.2892C58.7022 32.8866 58.1959 32.3436 57.8177 31.6603C57.4516 30.9649 57.2686 30.1901 57.2686 29.336C57.2686 28.4697 57.4516 27.695 57.8177 27.0117C58.1959 26.3162 58.7022 25.7672 59.3367 25.3645C59.9834 24.9497 60.7033 24.7423 61.4963 24.7423C62.1674 24.7423 62.7592 24.8887 63.2716 25.1815C63.7963 25.4621 64.2111 25.8526 64.5161 26.3528C64.8212 26.8531 64.9737 27.4204 64.9737 28.0549V30.5805C64.9737 31.215 64.8212 31.7824 64.5161 32.2826C64.2233 32.7829 63.8146 33.1794 63.2899 33.4722C62.7653 33.7529 62.1674 33.8932 61.4963 33.8932ZM61.8258 31.9898C62.57 31.9898 63.1679 31.7397 63.6193 31.2394C64.083 30.7392 64.3148 30.0986 64.3148 29.3177C64.3148 28.7931 64.2111 28.3294 64.0037 27.9268C63.7963 27.5241 63.5034 27.213 63.1252 26.9934C62.7592 26.7616 62.326 26.6456 61.8258 26.6456C61.3377 26.6456 60.9046 26.7616 60.5263 26.9934C60.1603 27.213 59.8675 27.5241 59.6478 27.9268C59.4404 28.3294 59.3367 28.7931 59.3367 29.3177C59.3367 29.8424 59.4404 30.306 59.6478 30.7087C59.8675 31.1113 60.1603 31.4285 60.5263 31.6603C60.9046 31.88 61.3377 31.9898 61.8258 31.9898ZM64.1867 33.7102V31.3492L64.5344 29.2079L64.1867 27.0849V24.9253H66.1999V33.7102H64.1867Z" fill="white"/>
<path d="M71.3075 33.8932C70.8195 33.8932 70.3498 33.8322 69.8983 33.7102C69.4469 33.5759 69.032 33.3929 68.6538 33.1611C68.2755 32.9171 67.9461 32.6242 67.6655 32.2826L68.9466 31.0015C69.2516 31.3553 69.5994 31.6237 69.9898 31.8068C70.3925 31.9776 70.8439 32.063 71.3442 32.063C71.7956 32.063 72.1372 31.9959 72.3691 31.8617C72.6009 31.7275 72.7168 31.5322 72.7168 31.276C72.7168 31.0076 72.607 30.8002 72.3874 30.6537C72.1677 30.5073 71.881 30.3853 71.5272 30.2877C71.1855 30.1779 70.8195 30.0681 70.4291 29.9583C70.0508 29.8485 69.6848 29.7021 69.331 29.519C68.9893 29.3238 68.7087 29.0615 68.4891 28.7321C68.2694 28.4026 68.1596 27.9756 68.1596 27.4509C68.1596 26.8897 68.2877 26.4077 68.544 26.0051C68.8124 25.6024 69.1845 25.2913 69.6604 25.0717C70.1484 24.8521 70.728 24.7423 71.3991 24.7423C72.1067 24.7423 72.729 24.8704 73.2658 25.1266C73.8149 25.3706 74.2724 25.7428 74.6385 26.243L73.3574 27.5241C73.1011 27.2069 72.8083 26.969 72.4789 26.8104C72.1494 26.6517 71.7712 26.5724 71.3442 26.5724C70.9415 26.5724 70.6304 26.6334 70.4108 26.7555C70.1911 26.8775 70.0813 27.0544 70.0813 27.2862C70.0813 27.5302 70.1911 27.7194 70.4108 27.8536C70.6304 27.9878 70.911 28.1037 71.2526 28.2013C71.6065 28.2989 71.9725 28.4087 72.3508 28.5307C72.7412 28.6405 73.1072 28.7992 73.4489 29.0066C73.8027 29.2018 74.0894 29.4702 74.3091 29.8119C74.5287 30.1413 74.6385 30.5744 74.6385 31.1113C74.6385 31.9654 74.3396 32.6425 73.7417 33.1428C73.1438 33.6431 72.3325 33.8932 71.3075 33.8932Z" fill="white"/>
<path d="M82.3195 33.7102V28.6405C82.3195 28.0549 82.1304 27.5729 81.7522 27.1947C81.3861 26.8165 80.9103 26.6273 80.3246 26.6273C79.9342 26.6273 79.5865 26.7128 79.2814 26.8836C78.9764 27.0544 78.7385 27.2923 78.5677 27.5973C78.3968 27.9024 78.3114 28.2501 78.3114 28.6405L77.5245 28.2013C77.5245 27.5302 77.6709 26.9385 77.9637 26.426C78.2565 25.9014 78.6592 25.4926 79.1716 25.1998C79.6963 24.8948 80.2819 24.7423 80.9286 24.7423C81.5875 24.7423 82.1731 24.8887 82.6856 25.1815C83.198 25.4743 83.6007 25.8831 83.8935 26.4077C84.1863 26.9202 84.3327 27.518 84.3327 28.2013V33.7102H82.3195ZM76.2982 33.7102V20.5328H78.3114V33.7102H76.2982Z" fill="white"/>
<path d="M89.3434 33.7102L85.3353 24.9253H87.5682L90.6246 32.0813H89.3068L92.3815 24.9253H94.5229L90.5148 33.7102H89.3434Z" fill="white"/>
<path d="M99.083 33.8932C98.2899 33.8932 97.5701 33.6919 96.9234 33.2892C96.2889 32.8866 95.7826 32.3436 95.4044 31.6603C95.0383 30.9649 94.8553 30.1901 94.8553 29.336C94.8553 28.4697 95.0383 27.695 95.4044 27.0117C95.7826 26.3162 96.2889 25.7672 96.9234 25.3645C97.5701 24.9497 98.2899 24.7423 99.083 24.7423C99.7541 24.7423 100.346 24.8887 100.858 25.1815C101.383 25.4621 101.798 25.8526 102.103 26.3528C102.408 26.8531 102.56 27.4204 102.56 28.0549V30.5805C102.56 31.215 102.408 31.7824 102.103 32.2826C101.81 32.7829 101.401 33.1794 100.877 33.4722C100.352 33.7529 99.7541 33.8932 99.083 33.8932ZM99.4125 31.9898C100.157 31.9898 100.755 31.7397 101.206 31.2394C101.67 30.7392 101.902 30.0986 101.902 29.3177C101.902 28.7931 101.798 28.3294 101.59 27.9268C101.383 27.5241 101.09 27.213 100.712 26.9934C100.346 26.7616 99.9127 26.6456 99.4125 26.6456C98.9244 26.6456 98.4913 26.7616 98.113 26.9934C97.747 27.213 97.4542 27.5241 97.2345 27.9268C97.0271 28.3294 96.9234 28.7931 96.9234 29.3177C96.9234 29.8424 97.0271 30.306 97.2345 30.7087C97.4542 31.1113 97.747 31.4285 98.113 31.6603C98.4913 31.88 98.9244 31.9898 99.4125 31.9898ZM101.773 33.7102V31.3492L102.121 29.2079L101.773 27.0849V24.9253H103.787V33.7102H101.773Z" fill="white"/>
<path d="M107.357 33.7102V21.2649H109.37V33.7102H107.357ZM105.252 26.7555V24.9253H111.475V26.7555H105.252Z" fill="white"/>
<path d="M116.366 33.8932C115.573 33.8932 114.853 33.6919 114.206 33.2892C113.572 32.8866 113.066 32.3436 112.687 31.6603C112.321 30.9649 112.138 30.1901 112.138 29.336C112.138 28.4697 112.321 27.695 112.687 27.0117C113.066 26.3162 113.572 25.7672 114.206 25.3645C114.853 24.9497 115.573 24.7423 116.366 24.7423C117.037 24.7423 117.629 24.8887 118.141 25.1815C118.666 25.4621 119.081 25.8526 119.386 26.3528C119.691 26.8531 119.843 27.4204 119.843 28.0549V30.5805C119.843 31.215 119.691 31.7824 119.386 32.2826C119.093 32.7829 118.684 33.1794 118.16 33.4722C117.635 33.7529 117.037 33.8932 116.366 33.8932ZM116.696 31.9898C117.44 31.9898 118.038 31.7397 118.489 31.2394C118.953 30.7392 119.185 30.0986 119.185 29.3177C119.185 28.7931 119.081 28.3294 118.873 27.9268C118.666 27.5241 118.373 27.213 117.995 26.9934C117.629 26.7616 117.196 26.6456 116.696 26.6456C116.207 26.6456 115.774 26.7616 115.396 26.9934C115.03 27.213 114.737 27.5241 114.518 27.9268C114.31 28.3294 114.206 28.7931 114.206 29.3177C114.206 29.8424 114.31 30.306 114.518 30.7087C114.737 31.1113 115.03 31.4285 115.396 31.6603C115.774 31.88 116.207 31.9898 116.696 31.9898ZM119.056 33.7102V31.3492L119.404 29.2079L119.056 27.0849V24.9253H121.07V33.7102H119.056Z" fill="white"/>
<path d="M126.968 33.7102V20.5328H128.981V33.7102H126.968Z" fill="white"/>
<path d="M134.9 33.8932C134.107 33.8932 133.387 33.6919 132.741 33.2892C132.106 32.8866 131.6 32.3436 131.222 31.6603C130.856 30.9649 130.673 30.1901 130.673 29.336C130.673 28.4697 130.856 27.695 131.222 27.0117C131.6 26.3162 132.106 25.7672 132.741 25.3645C133.387 24.9497 134.107 24.7423 134.9 24.7423C135.571 24.7423 136.163 24.8887 136.676 25.1815C137.2 25.4621 137.615 25.8526 137.92 26.3528C138.225 26.8531 138.378 27.4204 138.378 28.0549V30.5805C138.378 31.215 138.225 31.7824 137.92 32.2826C137.627 32.7829 137.219 33.1794 136.694 33.4722C136.169 33.7529 135.571 33.8932 134.9 33.8932ZM135.23 31.9898C135.974 31.9898 136.572 31.7397 137.023 31.2394C137.487 30.7392 137.719 30.0986 137.719 29.3177C137.719 28.7931 137.615 28.3294 137.408 27.9268C137.2 27.5241 136.907 27.213 136.529 26.9934C136.163 26.7616 135.73 26.6456 135.23 26.6456C134.742 26.6456 134.309 26.7616 133.93 26.9934C133.564 27.213 133.271 27.5241 133.052 27.9268C132.844 28.3294 132.741 28.7931 132.741 29.3177C132.741 29.8424 132.844 30.306 133.052 30.7087C133.271 31.1113 133.564 31.4285 133.93 31.6603C134.309 31.88 134.742 31.9898 135.23 31.9898ZM137.591 33.7102V31.3492L137.938 29.2079L137.591 27.0849V24.9253H139.604V33.7102H137.591Z" fill="white"/>
<path d="M146.542 33.8932C145.871 33.8932 145.273 33.7529 144.748 33.4722C144.223 33.1794 143.809 32.7829 143.504 32.2826C143.211 31.7824 143.064 31.215 143.064 30.5805V28.0549C143.064 27.4204 143.217 26.8531 143.522 26.3528C143.827 25.8526 144.242 25.4621 144.766 25.1815C145.291 24.8887 145.883 24.7423 146.542 24.7423C147.335 24.7423 148.049 24.9497 148.683 25.3645C149.33 25.7672 149.836 26.3162 150.202 27.0117C150.58 27.695 150.769 28.4697 150.769 29.336C150.769 30.1901 150.58 30.9649 150.202 31.6603C149.836 32.3436 149.33 32.8866 148.683 33.2892C148.049 33.6919 147.335 33.8932 146.542 33.8932ZM141.838 33.7102V20.5328H143.851V27.0849L143.504 29.2079L143.851 31.3492V33.7102H141.838ZM146.212 31.9898C146.7 31.9898 147.127 31.88 147.493 31.6603C147.872 31.4285 148.164 31.1113 148.372 30.7087C148.592 30.306 148.701 29.8424 148.701 29.3177C148.701 28.7931 148.592 28.3294 148.372 27.9268C148.164 27.5241 147.872 27.213 147.493 26.9934C147.127 26.7616 146.7 26.6456 146.212 26.6456C145.724 26.6456 145.291 26.7616 144.913 26.9934C144.535 27.213 144.242 27.5241 144.034 27.9268C143.827 28.3294 143.723 28.7931 143.723 29.3177C143.723 29.8424 143.827 30.306 144.034 30.7087C144.242 31.1113 144.535 31.4285 144.913 31.6603C145.291 31.88 145.724 31.9898 146.212 31.9898Z" fill="white"/>
<path d="M155.328 33.8932C154.84 33.8932 154.37 33.8322 153.919 33.7102C153.467 33.5759 153.052 33.3929 152.674 33.1611C152.296 32.9171 151.967 32.6242 151.686 32.2826L152.967 31.0015C153.272 31.3553 153.62 31.6237 154.01 31.8068C154.413 31.9776 154.864 32.063 155.365 32.063C155.816 32.063 156.158 31.9959 156.39 31.8617C156.621 31.7275 156.737 31.5322 156.737 31.276C156.737 31.0076 156.627 30.8002 156.408 30.6537C156.188 30.5073 155.901 30.3853 155.548 30.2877C155.206 30.1779 154.84 30.0681 154.45 29.9583C154.071 29.8485 153.705 29.7021 153.351 29.519C153.01 29.3238 152.729 29.0615 152.51 28.7321C152.29 28.4026 152.18 27.9756 152.18 27.4509C152.18 26.8897 152.308 26.4077 152.564 26.0051C152.833 25.6024 153.205 25.2913 153.681 25.0717C154.169 24.8521 154.748 24.7423 155.42 24.7423C156.127 24.7423 156.749 24.8704 157.286 25.1266C157.835 25.3706 158.293 25.7428 158.659 26.243L157.378 27.5241C157.122 27.2069 156.829 26.969 156.499 26.8104C156.17 26.6517 155.792 26.5724 155.365 26.5724C154.962 26.5724 154.651 26.6334 154.431 26.7555C154.212 26.8775 154.102 27.0544 154.102 27.2862C154.102 27.5302 154.212 27.7194 154.431 27.8536C154.651 27.9878 154.931 28.1037 155.273 28.2013C155.627 28.2989 155.993 28.4087 156.371 28.5307C156.762 28.6405 157.128 28.7992 157.469 29.0066C157.823 29.2018 158.11 29.4702 158.33 29.8119C158.549 30.1413 158.659 30.5744 158.659 31.1113C158.659 31.9654 158.36 32.6425 157.762 33.1428C157.164 33.6431 156.353 33.8932 155.328 33.8932Z" fill="white"/>
</svg>
