<svg width="62" height="63" viewBox="0 0 62 63" fill="none" xmlns="http://www.w3.org/2000/svg">
<path fill-rule="evenodd" clip-rule="evenodd" d="M29.4217 12.299L29.1086 0.957825L28.7954 12.299C28.5456 21.3485 21.2683 28.6257 12.2188 28.8756L0.877686 29.1887L12.2188 29.5019C21.2683 29.7518 28.5456 37.029 28.7954 46.0785L29.1086 57.4196L29.4217 46.0785C29.6716 37.029 36.9489 29.7518 45.9984 29.5019L57.3395 29.1887L45.9984 28.8756C36.9489 28.6257 29.6716 21.3484 29.4217 12.299ZM50.8753 40.4879C50.8314 40.0142 50.1398 40.0142 50.0959 40.4879L49.2478 49.6344C49.2304 49.822 49.0818 49.9706 48.8942 49.988L39.7477 50.8361C39.2741 50.88 39.2741 51.5716 39.7477 51.6155L48.8942 52.4636C49.0818 52.481 49.2304 52.6295 49.2478 52.8172L50.0959 61.9636C50.1398 62.4373 50.8314 62.4373 50.8753 61.9636L51.7234 52.8172C51.7408 52.6295 51.8894 52.481 52.077 52.4636L61.2234 51.6155C61.6971 51.5716 61.6971 50.88 61.2234 50.8361L52.077 49.988C51.8894 49.9706 51.7408 49.822 51.7234 49.6344L50.8753 40.4879Z" fill="white"/>
</svg>
